HIERARCHY
ROOT Hips
{
	OFFSET 0.00000 0.00000 0.00000
	CHANNELS 6 Xposition Yposition Zposition Zrotation Yrotation Xrotation 
	JOINT LHipJoint
	{
		OFFSET 0 0 0
		CHANNELS 3 Zrotation Yrotation Xrotation
		JOINT LeftUpLeg
		{
			OFFSET 1.65412 -1.54119 0.76744
			CHANNELS 3 Zrotation Yrotation Xrotation
			JOINT LeftLeg
			{
				OFFSET 2.19550 -6.03209 0.00000
				CHANNELS 3 Zrotation Yrotation Xrotation
				JOINT LeftFoot
				{
					OFFSET 2.38814 -6.56138 0.00000
					CHANNELS 3 Zrotation Yrotation Xrotation
					JOINT LeftToeBase
					{
						OFFSET 0.17337 -0.47632 1.75875
						CHANNELS 3 Zrotation Yrotation Xrotation
						End Site
						{
							OFFSET 0.00000 -0.00000 0.92050
						}
					}
				}
			}
		}
	}
	JOINT RHipJoint
	{
		OFFSET 0 0 0
		CHANNELS 3 Zrotation Yrotation Xrotation
		JOINT RightUpLeg
		{
			OFFSET -1.40291 -1.54119 0.76744
			CHANNELS 3 Zrotation Yrotation Xrotation
			JOINT RightLeg
			{
				OFFSET -2.22156 -6.10370 0.00000
				CHANNELS 3 Zrotation Yrotation Xrotation
				JOINT RightFoot
				{
					OFFSET -2.46840 -6.78188 0.00000
					CHANNELS 3 Zrotation Yrotation Xrotation
					JOINT RightToeBase
					{
						OFFSET -0.15659 -0.43024 1.84117
						CHANNELS 3 Zrotation Yrotation Xrotation
						End Site
						{
							OFFSET -0.00000 -0.00000 0.95587
						}
					}
				}
			}
		}
	}
	JOINT LowerBack
	{
		OFFSET 0 0 0
		CHANNELS 3 Zrotation Yrotation Xrotation
		JOINT Spine
		{
			OFFSET -0.01936 1.82120 -0.32061
			CHANNELS 3 Zrotation Yrotation Xrotation
			JOINT Spine1
			{
				OFFSET -0.00532 1.85767 -0.00071
				CHANNELS 3 Zrotation Yrotation Xrotation
				JOINT Neck
				{
					OFFSET 0 0 0
					CHANNELS 3 Zrotation Yrotation Xrotation
					JOINT Neck1
					{
						OFFSET -0.10687 1.58194 0.10810
						CHANNELS 3 Zrotation Yrotation Xrotation
						JOINT Head
						{
							OFFSET 0.15346 1.57382 -0.25612
							CHANNELS 3 Zrotation Yrotation Xrotation
							End Site
							{
								OFFSET 0.05334 1.61251 -0.10513
							}
						}
					}
				}
				JOINT LeftShoulder
				{
					OFFSET 0 0 0
					CHANNELS 3 Zrotation Yrotation Xrotation
					JOINT LeftArm
					{
						OFFSET 2.85758 0.89498 -0.01485
						CHANNELS 3 Zrotation Yrotation Xrotation
						JOINT LeftForeArm
						{
							OFFSET 4.79185 -0.00000 -0.00000
							CHANNELS 3 Zrotation Yrotation Xrotation
							JOINT LeftHand
							{
								OFFSET 2.65553 -0.00000 0.00000
								CHANNELS 3 Zrotation Yrotation Xrotation
								JOINT LeftFingerBase
								{
									OFFSET 0 0 0
									CHANNELS 3 Zrotation Yrotation Xrotation
									JOINT LeftHandIndex1
									{
										OFFSET 0.74390 -0.00000 0.00000
										CHANNELS 3 Zrotation Yrotation Xrotation
										End Site
										{
											OFFSET 0.59975 -0.00000 0.00000
										}
									}
								}
								JOINT LThumb
								{
									OFFSET 0 0 0
									CHANNELS 3 Zrotation Yrotation Xrotation
									End Site
									{
										OFFSET 0.60891 -0.00000 0.60891
									}
								}
							}
						}
					}
				}
				JOINT RightShoulder
				{
					OFFSET 0 0 0
					CHANNELS 3 Zrotation Yrotation Xrotation
					JOINT RightArm
					{
						OFFSET -2.93906 0.88031 0.02490
						CHANNELS 3 Zrotation Yrotation Xrotation
						JOINT RightForeArm
						{
							OFFSET -4.77254 -0.00000 -0.00000
							CHANNELS 3 Zrotation Yrotation Xrotation
							JOINT RightHand
							{
								OFFSET -2.75995 -0.00000 -0.00000
								CHANNELS 3 Zrotation Yrotation Xrotation
								JOINT RightFingerBase
								{
									OFFSET 0 0 0
									CHANNELS 3 Zrotation Yrotation Xrotation
									JOINT RightHandIndex1
									{
										OFFSET -0.70162 -0.00000 0.00000
										CHANNELS 3 Zrotation Yrotation Xrotation
										End Site
										{
											OFFSET -0.56566 -0.00000 0.00000
										}
									}
								}
								JOINT RThumb
								{
									OFFSET 0 0 0
									CHANNELS 3 Zrotation Yrotation Xrotation
									End Site
									{
										OFFSET -0.57430 -0.00000 0.57430
									}
								}
							}
						}
					}
				}
			}
		}
	}
}
MOTION
Frames: 9
Frame Time: .0083333
0.3616 15.0086 -1.0704 -0.1361 2.9352 -4.6663 0.0000 0.0000 0.0000 -15.0617 -5.6774 -17.0716 6.2385 14.6555 45.9314 0.3049 -14.7483 -13.5048 0.0785 -1.8078 -4.9749 0.0000 0.0000 0.0000 14.4591 7.0518 -15.9961 -6.8212 -15.1794 48.1946 -1.5602 1.5563 -23.1742 -1.0185 6.4205 -18.0094 -2.9789 0.7589 16.3951 -1.8852 0.5943 9.5030 -0.3889 0.2386 0.9196 -17.0236 -10.1999 4.0789 21.2240 -14.5887 -0.7245 8.9327 -7.5095 2.0241 0.0000 -0.0000 0.0000 -82.8607 -1.8959 26.3388 11.2751 -18.7088 -1.8632 -0.0000 0.0000 -26.2095 9.5631 10.3810 1.7388 -7.1250 0.0000 -0.0000 -15.2582 40.0348 1.9191 0.0000 -0.0000 0.0000 65.4281 39.6179 19.1162 -143.9955 45.5162 -104.4743 0.0000 -0.0000 -47.2993 -2.5573 6.1149 -0.2726 7.1250 -0.0000 -0.0000 17.6991 -23.8657 9.4670
0.3612 15.0095 -1.0695 -0.0949 2.9935 -4.6326 0.0000 0.0000 0.0000 -15.1072 -5.7036 -17.1045 6.2349 14.6522 45.9175 0.2960 -14.7768 -13.4343 0.0703 -1.7106 -4.7064 0.0000 0.0000 0.0000 14.4037 7.0194 -16.0302 -6.8194 -15.1779 48.1880 -1.5626 1.5588 -23.1920 -1.0140 6.4068 -17.9693 -2.9832 0.7601 16.3535 -1.9016 0.5962 9.4698 -0.4035 0.2402 0.9057 -17.0479 -10.2351 4.0066 21.2308 -14.6343 -0.6869 8.9287 -7.5276 2.0585 0.0000 -0.0000 0.0000 -82.8551 -1.9059 26.3744 11.2511 -18.6721 -1.8555 -0.0000 0.0000 -26.2104 9.5579 10.4358 1.7470 -7.1250 0.0000 -0.0000 -15.2764 40.0879 1.9009 0.0000 -0.0000 0.0000 65.2780 40.0391 19.0971 -144.4925 45.1711 -104.8278 0.0000 -0.0000 -47.4060 -2.3596 6.0635 -0.2494 7.1250 -0.0000 -0.0000 17.8466 -23.9148 9.5325
0.3612 15.0096 -1.0694 -0.1388 3.0561 -4.6383 0.0000 0.0000 0.0000 -15.0629 -5.7402 -17.1031 6.2334 14.6508 45.9114 0.2904 -14.7875 -13.3866 0.0722 -1.7336 -4.7700 0.0000 0.0000 0.0000 14.4437 6.9684 -16.0211 -6.8138 -15.1731 48.1666 -1.5610 1.5914 -23.1717 -0.9847 6.3162 -17.7048 -2.8955 0.7446 16.3701 -1.9015 0.5862 9.4355 -0.4515 0.2394 0.8606 -16.9752 -10.2718 3.9659 21.1605 -14.6705 -0.7114 8.8884 -7.5431 2.0540 0.0000 0.0000 0.0000 -82.8302 -1.8895 26.4579 11.2258 -18.6336 -1.8474 -0.0000 0.0000 -26.2929 9.6354 10.4373 1.7616 -7.1250 0.0000 -0.0000 -15.2109 40.0959 1.8892 0.0000 0.0000 0.0000 65.1489 40.4259 19.0608 -144.8640 44.9090 -105.0907 0.0000 -0.0000 -47.3338 -1.9062 6.1211 -0.2033 7.1250 -0.0000 -0.0000 18.1612 -23.8601 9.7425
0.3608 15.0095 -1.0700 -0.2229 3.1154 -4.6780 0.0000 0.0000 0.0000 -14.9738 -5.7681 -17.0791 6.2340 14.6513 45.9136 0.2814 -14.8013 -13.3082 0.0691 -1.6956 -4.6652 0.0000 0.0000 0.0000 14.5473 6.9156 -15.9669 -6.8042 -15.1648 48.1300 -1.5587 1.5235 -23.1715 -1.0006 6.3654 -17.8485 -2.7621 0.7213 16.4027 -1.9016 0.5721 9.4255 -0.5247 0.2381 0.8334 -16.9230 -10.3005 3.9607 21.1659 -14.6917 -0.8335 8.8818 -7.5558 2.0209 -0.0000 0.0000 0.0000 -82.7857 -1.9029 26.5495 11.1817 -18.5662 -1.8334 -0.0000 0.0000 -26.3743 9.6804 10.3182 1.7500 -7.1250 0.0000 -0.0000 -15.1430 39.9833 1.9235 -0.0000 0.0000 0.0000 65.0822 40.8052 19.0242 -145.2035 44.6663 -105.3299 0.0000 -0.0000 -47.2636 -1.3882 6.2708 -0.1517 7.1250 -0.0000 -0.0000 18.5079 -23.7175 10.0136
0.3598 15.0096 -1.0689 -0.2165 3.1701 -4.7385 0.0000 0.0000 0.0000 -14.9905 -5.7675 -16.9964 6.2291 14.6468 45.8946 0.2785 -14.8388 -13.3004 0.0637 -1.6286 -4.4804 0.0000 0.0000 0.0000 14.5543 6.8479 -15.8720 -6.7948 -15.1567 48.0941 -1.5600 1.4791 -23.1935 -0.9989 6.3602 -17.8332 -2.7703 0.7209 16.4292 -1.8895 0.5703 9.4380 -0.5075 0.2366 0.8329 -16.9335 -10.2868 3.9879 21.2274 -14.6594 -0.9870 8.9116 -7.5445 1.9725 -0.0000 -0.0000 0.0000 -82.8114 -1.9272 26.4512 11.1395 -18.5017 -1.8199 -0.0000 0.0000 -26.2779 9.6383 10.2363 1.7286 -7.1250 0.0000 -0.0000 -15.1583 39.8997 1.9577 -0.0000 -0.0000 0.0000 64.9283 41.1889 19.1363 -145.6312 44.3561 -105.6297 0.0000 -0.0000 -47.3958 -1.5752 6.3834 -0.1752 7.1250 -0.0000 -0.0000 18.3602 -23.6109 9.9729
0.3584 15.0109 -1.0668 -0.1696 3.2100 -4.7437 0.0000 0.0000 0.0000 -15.0475 -5.7587 -16.9661 6.2194 14.6376 45.8559 0.2782 -14.8364 -13.2961 0.0703 -1.7104 -4.7061 0.0000 0.0000 0.0000 14.5096 6.8221 -15.8359 -6.7855 -15.1486 48.0585 -1.5573 1.4517 -23.1801 -0.9983 6.3586 -17.8285 -2.8477 0.7425 16.3907 -1.8637 0.5900 9.4302 -0.4395 0.2428 0.8439 -17.0065 -10.2501 4.0873 21.3246 -14.6081 -1.1450 8.9699 -7.5281 1.9149 -0.0000 -0.0000 0.0000 -82.8856 -1.9122 26.3173 11.1167 -18.4669 -1.8127 -0.0000 0.0000 -26.1397 9.6028 10.1785 1.7125 -7.1250 0.0000 -0.0000 -15.1742 39.8405 1.9826 -0.0000 -0.0000 0.0000 64.7432 41.5251 19.2215 -146.0660 44.0358 -105.9329 0.0000 -0.0000 -47.5482 -1.7166 6.3114 -0.1888 7.1250 -0.0000 -0.0000 18.2699 -23.6792 9.8880
0.3567 15.0121 -1.0647 -0.1657 3.2427 -4.7615 0.0000 0.0000 0.0000 -15.0474 -5.7408 -16.9182 6.2034 14.6226 45.7927 0.2665 -14.8740 -13.2046 0.0628 -1.6173 -4.4493 0.0000 0.0000 0.0000 14.5069 6.7838 -15.7991 -6.7788 -15.1427 48.0325 -1.5584 1.5066 -23.1742 -0.9888 6.3291 -17.7424 -2.8507 0.7601 16.3637 -1.8577 0.6151 9.4533 -0.4349 0.2547 0.8822 -16.9451 -10.2443 4.0461 21.3191 -14.5806 -1.2293 8.9600 -7.5137 1.8874 0.0000 -0.0000 0.0000 -82.8707 -1.9099 26.3100 11.1408 -18.5038 -1.8204 -0.0000 0.0000 -26.0878 9.5841 10.1938 1.7117 -7.1250 0.0000 -0.0000 -15.1938 39.8539 1.9802 0.0000 -0.0000 0.0000 64.6084 41.9116 19.2011 -146.3485 43.8249 -106.1288 0.0000 -0.0000 -47.6305 -1.6848 6.3840 -0.1874 7.1250 -0.0000 -0.0000 18.2826 -23.6103 9.9265
0.3556 15.0150 -1.0631 -0.1620 3.3131 -4.7693 0.0000 0.0000 0.0000 -15.0557 -5.7513 -16.8861 6.1883 14.6083 45.7327 0.2550 -14.9192 -13.1182 0.0578 -1.5517 -4.2681 0.0000 0.0000 0.0000 14.5007 6.7054 -15.7748 -6.7711 -15.1361 48.0032 -1.5625 1.4779 -23.2131 -1.0016 6.3686 -17.8578 -2.8437 0.7645 16.3479 -1.8467 0.6231 9.4555 -0.4283 0.2588 0.8926 -16.8923 -10.2360 4.1335 21.2966 -14.5520 -1.4211 8.9569 -7.5074 1.8067 0.0000 -0.0000 0.0000 -82.8556 -1.8675 26.4816 11.1904 -18.5795 -1.8361 -0.0000 0.0000 -26.1949 9.6238 10.2318 1.7252 -7.1250 0.0000 -0.0000 -15.1695 39.8943 1.9613 0.0000 -0.0000 0.0000 64.4527 42.1761 19.1982 -146.6309 43.6119 -106.3240 0.0000 -0.0000 -47.6517 -1.6163 6.5667 -0.1849 7.1250 -0.0000 -0.0000 18.3065 -23.4368 10.0186
0.3559 15.0181 -1.0619 -0.1209 3.3778 -4.8009 0.0000 0.0000 0.0000 -15.1181 -5.7653 -16.8086 6.1727 14.5937 45.6711 0.2522 -14.9164 -13.0897 0.0558 -1.5239 -4.1917 0.0000 0.0000 0.0000 14.4433 6.6205 -15.7336 -6.7660 -15.1316 47.9835 -1.5661 1.5643 -23.2174 -0.9702 6.2709 -17.5724 -2.8672 0.7657 16.3681 -1.8406 0.6214 9.4636 -0.4087 0.2571 0.8907 -16.9061 -10.2313 4.1873 21.3129 -14.5308 -1.5983 8.9738 -7.5030 1.7458 -0.0000 -0.0000 0.0000 -82.8520 -1.8141 26.6487 11.2440 -18.6613 -1.8532 -0.0000 0.0000 -26.2797 9.6670 10.3475 1.7525 -7.1250 0.0000 -0.0000 -15.1616 40.0108 1.9154 -0.0000 -0.0000 0.0000 64.3400 42.4613 19.3103 -146.9283 43.3851 -106.5287 0.0000 -0.0000 -47.5356 -1.5772 6.6765 -0.1834 7.1250 -0.0000 -0.0000 18.3194 -23.3325 10.0731
